<?xml version="1.0" encoding="utf-8"?>
<!-- Generator: Adobe Illustrator 27.5.0, SVG Export Plug-In . SVG Version: 6.00 Build 0)  -->
<svg version="1.1" xmlns="http://www.w3.org/2000/svg" xmlns:xlink="http://www.w3.org/1999/xlink" x="0px" y="0px"
	 viewBox="0 0 1122 1122" style="enable-background:new 0 0 1122 1122;" xml:space="preserve">
<g id="Bg">
	<rect style="fill:#FFFFFF;" width="1122" height="1122"/>
</g>
<g id="Object">
	<path style="fill:#AAD4C8;" d="M849.54,487.32c-1.888-5.159-6.5-8.796-11.959-9.426l-182.482-20.864L573.493,294.94
		c-2.457-4.863-7.493-7.962-12.933-7.962c-5.465,0-10.482,3.099-12.933,7.962l-81.794,162.483l-181.931,27.334
		c-5.387,0.802-9.901,4.609-11.596,9.786c-1.707,5.178-0.315,10.936,3.534,14.776L406.069,639.12L383.47,818.739
		c-0.678,5.411,1.767,10.794,6.282,13.829c4.527,3.038,10.434,3.274,15.185,0.599l159.369-89.74l158.546,87.994
		c4.769,2.642,10.658,2.375,15.172-0.693c4.515-3.068,6.924-8.467,6.21-13.862l-23.96-181.462l126.179-133.167
		C850.229,498.241,851.409,492.482,849.54,487.32z"/>
</g>
</svg>
