<?xml version="1.0" encoding="utf-8"?>
<!-- Generator: Adobe Illustrator 27.5.0, SVG Export Plug-In . SVG Version: 6.00 Build 0)  -->
<svg version="1.1" xmlns="http://www.w3.org/2000/svg" xmlns:xlink="http://www.w3.org/1999/xlink" x="0px" y="0px"
	 viewBox="0 0 800 800" style="enable-background:new 0 0 800 800;" xml:space="preserve">
<g id="background">
	<rect style="fill:#F2F2F2;" width="800" height="800"/>
	<g>
		<g>
			<path style="fill:#333333;" d="M288.492,774.287v-0.257c-0.349,0.398-0.692,0.724-1.031,0.973
				c-0.338,0.251-0.706,0.441-1.102,0.57c-0.396,0.132-0.827,0.195-1.296,0.195c-0.621,0-1.196-0.131-1.725-0.394
				c-0.528-0.263-0.986-0.639-1.372-1.126c-0.387-0.487-0.68-1.06-0.879-1.719c-0.199-0.659-0.299-1.371-0.299-2.137
				c0-1.621,0.396-2.886,1.188-3.791c0.792-0.904,1.833-1.357,3.125-1.357c0.747,0,1.377,0.129,1.89,0.384
				c0.513,0.257,1.013,0.652,1.501,1.183v-3.827c0-0.532,0.105-0.934,0.318-1.206c0.211-0.273,0.514-0.408,0.907-0.408
				c0.393,0,0.694,0.125,0.907,0.375c0.212,0.251,0.318,0.618,0.318,1.106v11.436c0,0.494-0.113,0.864-0.342,1.111
				c-0.228,0.246-0.522,0.37-0.883,0.37c-0.354,0-0.647-0.128-0.879-0.384C288.607,775.127,288.492,774.761,288.492,774.287z
				 M283.392,770.478c0,0.703,0.109,1.301,0.328,1.795c0.219,0.494,0.518,0.866,0.897,1.115c0.38,0.251,0.795,0.377,1.244,0.377
				c0.456,0,0.872-0.119,1.249-0.357c0.377-0.236,0.677-0.602,0.902-1.091c0.225-0.491,0.337-1.105,0.337-1.839
				c0-0.69-0.112-1.284-0.337-1.782c-0.225-0.496-0.528-0.876-0.912-1.14c-0.383-0.262-0.803-0.393-1.258-0.393
				c-0.475,0-0.899,0.135-1.273,0.403c-0.374,0.269-0.663,0.654-0.869,1.158C283.494,769.229,283.392,769.813,283.392,770.478z"/>
			<path style="fill:#333333;" d="M299.926,771.134h-5.071c0.006,0.588,0.125,1.107,0.356,1.557c0.23,0.45,0.538,0.789,0.921,1.017
				c0.383,0.229,0.806,0.341,1.268,0.341c0.31,0,0.593-0.035,0.85-0.107c0.257-0.074,0.505-0.187,0.746-0.343
				c0.241-0.154,0.462-0.321,0.665-0.499c0.202-0.178,0.464-0.419,0.788-0.723c0.133-0.113,0.323-0.171,0.571-0.171
				c0.266,0,0.48,0.074,0.645,0.22c0.165,0.146,0.248,0.351,0.248,0.617c0,0.234-0.093,0.507-0.275,0.821
				c-0.185,0.314-0.462,0.614-0.832,0.902c-0.372,0.288-0.835,0.526-1.397,0.717c-0.56,0.19-1.204,0.285-1.933,0.285
				c-1.664,0-2.96-0.476-3.884-1.425c-0.924-0.949-1.386-2.238-1.386-3.865c0-0.767,0.113-1.478,0.341-2.132
				c0.229-0.656,0.561-1.218,0.997-1.686c0.437-0.469,0.975-0.827,1.615-1.078c0.639-0.25,1.349-0.374,2.127-0.374
				c1.013,0,1.882,0.212,2.606,0.641c0.726,0.427,1.27,0.979,1.63,1.656c0.36,0.678,0.542,1.369,0.542,2.07
				c0,0.653-0.187,1.075-0.56,1.269C301.13,771.037,300.604,771.134,299.926,771.134z M294.855,769.662h4.702
				c-0.063-0.887-0.303-1.551-0.717-1.99c-0.415-0.44-0.96-0.66-1.638-0.66c-0.646,0-1.177,0.223-1.591,0.669
				C295.195,768.127,294.944,768.788,294.855,769.662z"/>
			<path style="fill:#333333;" d="M311.741,772.377c0,0.716-0.173,1.329-0.522,1.839c-0.348,0.51-0.862,0.896-1.543,1.159
				c-0.68,0.263-1.508,0.394-2.483,0.394c-0.931,0-1.728-0.143-2.394-0.428c-0.664-0.284-1.156-0.642-1.472-1.067
				c-0.317-0.429-0.475-0.857-0.475-1.288c0-0.285,0.101-0.528,0.304-0.731c0.202-0.202,0.459-0.304,0.77-0.304
				c0.271,0,0.48,0.066,0.626,0.199c0.146,0.133,0.286,0.32,0.418,0.56c0.266,0.464,0.585,0.807,0.956,1.036
				c0.37,0.227,0.875,0.342,1.515,0.342c0.519,0,0.945-0.116,1.277-0.347c0.332-0.232,0.498-0.496,0.498-0.794
				c0-0.456-0.172-0.787-0.518-0.996c-0.345-0.209-0.913-0.409-1.705-0.6c-0.893-0.221-1.619-0.454-2.18-0.698
				c-0.561-0.242-1.008-0.565-1.344-0.963c-0.335-0.399-0.503-0.891-0.503-1.473c0-0.518,0.155-1.01,0.465-1.473
				c0.311-0.461,0.768-0.83,1.374-1.105c0.603-0.276,1.333-0.414,2.188-0.414c0.671,0,1.275,0.069,1.809,0.21
				c0.536,0.138,0.983,0.326,1.34,0.561c0.358,0.233,0.63,0.493,0.816,0.777c0.186,0.285,0.28,0.563,0.28,0.837
				c0,0.297-0.1,0.541-0.298,0.731c-0.199,0.188-0.482,0.285-0.85,0.285c-0.266,0-0.492-0.076-0.679-0.23
				c-0.186-0.151-0.4-0.379-0.641-0.683c-0.196-0.253-0.426-0.456-0.693-0.608c-0.266-0.152-0.627-0.228-1.083-0.228
				c-0.469,0-0.858,0.099-1.168,0.3c-0.31,0.198-0.465,0.446-0.465,0.744c0,0.273,0.114,0.496,0.341,0.67
				c0.228,0.175,0.535,0.319,0.922,0.433c0.386,0.113,0.917,0.252,1.596,0.417c0.803,0.197,1.46,0.432,1.97,0.703
				c0.509,0.271,0.896,0.594,1.16,0.965C311.61,771.48,311.741,771.902,311.741,772.377z"/>
			<path style="fill:#333333;" d="M314.39,764.02c-0.361,0-0.669-0.111-0.926-0.333c-0.256-0.221-0.385-0.534-0.385-0.94
				c0-0.368,0.131-0.669,0.394-0.907c0.263-0.238,0.569-0.356,0.916-0.356c0.336,0,0.633,0.107,0.893,0.323
				c0.26,0.216,0.39,0.528,0.39,0.94c0,0.399-0.127,0.711-0.381,0.936C315.039,763.907,314.738,764.02,314.39,764.02z
				 M315.672,766.698v7.493c0,0.52-0.124,0.913-0.371,1.179c-0.247,0.266-0.56,0.398-0.94,0.398s-0.689-0.136-0.926-0.408
				c-0.238-0.273-0.356-0.662-0.356-1.169v-7.418c0-0.512,0.118-0.898,0.356-1.158c0.237-0.26,0.546-0.39,0.926-0.39
				s0.693,0.13,0.94,0.39C315.549,765.875,315.672,766.236,315.672,766.698z"/>
			<path style="fill:#333333;" d="M327.031,767.125v7.531c0,0.861-0.093,1.602-0.277,2.224c-0.182,0.619-0.477,1.133-0.883,1.538
				c-0.405,0.404-0.935,0.706-1.59,0.901c-0.655,0.197-1.471,0.295-2.446,0.295c-0.893,0-1.69-0.125-2.393-0.375
				c-0.702-0.251-1.243-0.573-1.624-0.969c-0.379-0.396-0.57-0.803-0.57-1.221c0-0.316,0.108-0.575,0.324-0.773
				c0.215-0.2,0.475-0.3,0.778-0.3c0.38,0,0.712,0.168,0.997,0.503c0.139,0.171,0.283,0.345,0.432,0.519
				c0.149,0.175,0.314,0.323,0.494,0.447c0.181,0.122,0.398,0.214,0.65,0.274c0.253,0.059,0.545,0.09,0.874,0.09
				c0.671,0,1.192-0.093,1.563-0.28c0.371-0.186,0.63-0.448,0.779-0.784c0.149-0.334,0.236-0.693,0.261-1.077
				s0.044-0.999,0.057-1.849c-0.399,0.559-0.859,0.983-1.382,1.274c-0.522,0.291-1.145,0.437-1.866,0.437
				c-0.868,0-1.625-0.222-2.275-0.665c-0.648-0.443-1.147-1.063-1.495-1.861c-0.349-0.799-0.522-1.719-0.522-2.764
				c0-0.778,0.105-1.482,0.317-2.108c0.213-0.628,0.515-1.156,0.907-1.587c0.393-0.431,0.845-0.755,1.358-0.974
				c0.513-0.218,1.076-0.327,1.691-0.327c0.734,0,1.371,0.142,1.909,0.422c0.538,0.283,1.039,0.725,1.5,1.326v-0.352
				c0-0.449,0.11-0.797,0.332-1.045c0.222-0.246,0.507-0.37,0.855-0.37c0.5,0,0.832,0.164,0.997,0.489
				C326.948,766.041,327.031,766.511,327.031,767.125z M319.518,770.412c0,1.051,0.229,1.846,0.688,2.384
				c0.459,0.539,1.053,0.808,1.781,0.808c0.43,0,0.837-0.116,1.22-0.347c0.384-0.232,0.695-0.58,0.936-1.045
				c0.24-0.466,0.361-1.03,0.361-1.695c0-1.057-0.232-1.881-0.698-2.469c-0.466-0.589-1.078-0.884-1.838-0.884
				c-0.741,0-1.334,0.282-1.78,0.846C319.741,768.572,319.518,769.374,319.518,770.412z"/>
			<path style="fill:#333333;" d="M331.152,766.66v0.313c0.455-0.602,0.954-1.043,1.496-1.325c0.542-0.281,1.163-0.423,1.866-0.423
				c0.684,0,1.295,0.149,1.833,0.447c0.538,0.298,0.941,0.719,1.206,1.262c0.172,0.317,0.282,0.66,0.332,1.026
				c0.051,0.368,0.077,0.836,0.077,1.406v4.824c0,0.52-0.119,0.913-0.357,1.179c-0.237,0.266-0.546,0.398-0.926,0.398
				c-0.387,0-0.7-0.136-0.94-0.408c-0.241-0.273-0.361-0.662-0.361-1.169v-4.321c0-0.854-0.119-1.509-0.356-1.961
				c-0.238-0.452-0.71-0.68-1.42-0.68c-0.461,0-0.883,0.138-1.263,0.413c-0.38,0.276-0.659,0.655-0.836,1.136
				c-0.126,0.387-0.19,1.107-0.19,2.165v3.248c0,0.525-0.123,0.921-0.365,1.184c-0.244,0.263-0.559,0.394-0.945,0.394
				c-0.375,0-0.681-0.136-0.922-0.408c-0.24-0.273-0.361-0.662-0.361-1.169v-7.493c0-0.494,0.107-0.863,0.323-1.107
				c0.215-0.243,0.51-0.365,0.883-0.365c0.229,0,0.435,0.054,0.619,0.162c0.183,0.108,0.331,0.269,0.441,0.483
				C331.097,766.086,331.152,766.35,331.152,766.66z"/>
			<path style="fill:#333333;" d="M346.926,771.134h-5.071c0.007,0.588,0.125,1.107,0.356,1.557c0.231,0.45,0.538,0.789,0.921,1.017
				c0.382,0.229,0.805,0.341,1.267,0.341c0.31,0,0.594-0.035,0.851-0.107c0.255-0.074,0.504-0.187,0.746-0.343
				c0.24-0.154,0.461-0.321,0.665-0.499c0.202-0.178,0.464-0.419,0.788-0.723c0.133-0.113,0.323-0.171,0.57-0.171
				c0.266,0,0.481,0.074,0.646,0.22c0.165,0.146,0.247,0.351,0.247,0.617c0,0.234-0.091,0.507-0.275,0.821
				c-0.184,0.314-0.461,0.614-0.832,0.902c-0.371,0.288-0.835,0.526-1.396,0.717c-0.56,0.19-1.205,0.285-1.933,0.285
				c-1.665,0-2.96-0.476-3.885-1.425c-0.923-0.949-1.386-2.238-1.386-3.865c0-0.767,0.114-1.478,0.342-2.132
				c0.228-0.656,0.561-1.218,0.998-1.686c0.436-0.469,0.975-0.827,1.614-1.078c0.639-0.25,1.349-0.374,2.128-0.374
				c1.013,0,1.881,0.212,2.606,0.641c0.726,0.427,1.269,0.979,1.63,1.656c0.36,0.678,0.542,1.369,0.542,2.07
				c0,0.653-0.186,1.075-0.561,1.269C348.13,771.037,347.605,771.134,346.926,771.134z M341.855,769.662h4.701
				c-0.063-0.887-0.302-1.551-0.717-1.99c-0.415-0.44-0.961-0.66-1.638-0.66c-0.646,0-1.177,0.223-1.592,0.669
				C342.194,768.127,341.944,768.788,341.855,769.662z"/>
			<path style="fill:#333333;" d="M357.496,774.287v-0.257c-0.348,0.398-0.691,0.724-1.03,0.973
				c-0.339,0.251-0.706,0.441-1.102,0.57c-0.395,0.132-0.828,0.195-1.296,0.195c-0.622,0-1.196-0.131-1.724-0.394
				c-0.529-0.263-0.986-0.639-1.373-1.126c-0.387-0.487-0.679-1.06-0.878-1.719c-0.2-0.659-0.299-1.371-0.299-2.137
				c0-1.621,0.395-2.886,1.187-3.791c0.792-0.904,1.833-1.357,3.125-1.357c0.747,0,1.378,0.129,1.89,0.384
				c0.513,0.257,1.013,0.652,1.5,1.183v-3.827c0-0.532,0.106-0.934,0.319-1.206c0.211-0.273,0.515-0.408,0.907-0.408
				c0.392,0,0.694,0.125,0.907,0.375c0.212,0.251,0.318,0.618,0.318,1.106v11.436c0,0.494-0.114,0.864-0.342,1.111
				c-0.228,0.246-0.522,0.37-0.883,0.37c-0.355,0-0.647-0.128-0.879-0.384C357.612,775.127,357.496,774.761,357.496,774.287z
				 M352.396,770.478c0,0.703,0.108,1.301,0.327,1.795c0.218,0.494,0.518,0.866,0.898,1.115c0.379,0.251,0.794,0.377,1.243,0.377
				c0.456,0,0.873-0.119,1.249-0.357c0.377-0.236,0.678-0.602,0.902-1.091c0.225-0.491,0.337-1.105,0.337-1.839
				c0-0.69-0.112-1.284-0.337-1.782c-0.224-0.496-0.528-0.876-0.912-1.14c-0.384-0.262-0.803-0.393-1.259-0.393
				c-0.474,0-0.899,0.135-1.272,0.403c-0.373,0.269-0.663,0.654-0.869,1.158C352.499,769.229,352.396,769.813,352.396,770.478z"/>
			<path style="fill:#333333;" d="M368.094,762.851v3.96c0.487-0.506,0.984-0.895,1.491-1.163c0.506-0.269,1.134-0.403,1.881-0.403
				c0.861,0,1.616,0.204,2.266,0.611c0.648,0.41,1.151,1.002,1.51,1.777c0.357,0.774,0.537,1.695,0.537,2.76
				c0,0.785-0.1,1.504-0.299,2.16c-0.2,0.655-0.49,1.224-0.869,1.704c-0.38,0.481-0.841,0.854-1.382,1.117
				c-0.542,0.263-1.139,0.394-1.79,0.394c-0.399,0-0.775-0.047-1.125-0.143c-0.352-0.095-0.651-0.219-0.898-0.375
				c-0.246-0.154-0.457-0.314-0.631-0.479c-0.174-0.164-0.404-0.412-0.689-0.741v0.257c0,0.487-0.117,0.856-0.352,1.107
				c-0.233,0.25-0.531,0.374-0.892,0.374c-0.367,0-0.66-0.124-0.879-0.374c-0.219-0.251-0.328-0.62-0.328-1.107v-11.322
				c0-0.525,0.106-0.923,0.317-1.191c0.212-0.269,0.509-0.403,0.889-0.403c0.399,0,0.706,0.128,0.921,0.384
				C367.986,762.011,368.094,762.375,368.094,762.851z M368.218,770.554c0,1.032,0.236,1.824,0.708,2.378
				c0.472,0.555,1.091,0.833,1.857,0.833c0.652,0,1.214-0.283,1.686-0.851c0.472-0.567,0.708-1.379,0.708-2.437
				c0-0.684-0.097-1.273-0.294-1.767c-0.197-0.494-0.475-0.876-0.835-1.145c-0.361-0.268-0.783-0.403-1.264-0.403
				c-0.494,0-0.935,0.135-1.32,0.403c-0.386,0.269-0.69,0.658-0.912,1.168C368.329,769.244,368.218,769.851,368.218,770.554z"/>
			<path style="fill:#333333;" d="M379.14,776.091l0.237-0.58l-3.191-8.035c-0.196-0.461-0.295-0.798-0.295-1.007
				c0-0.222,0.058-0.427,0.171-0.616c0.114-0.19,0.271-0.343,0.47-0.456c0.2-0.115,0.407-0.172,0.622-0.172
				c0.373,0,0.655,0.119,0.846,0.357c0.19,0.237,0.357,0.577,0.503,1.021l2.194,6.383l2.08-5.937
				c0.164-0.479,0.313-0.857,0.446-1.13c0.133-0.273,0.273-0.456,0.422-0.55c0.149-0.096,0.359-0.144,0.632-0.144
				c0.197,0,0.385,0.052,0.565,0.157c0.18,0.104,0.319,0.245,0.418,0.423c0.098,0.177,0.148,0.363,0.148,0.56
				c-0.026,0.12-0.066,0.291-0.124,0.514c-0.058,0.221-0.126,0.447-0.208,0.674l-3.381,8.852c-0.292,0.778-0.577,1.389-0.855,1.832
				c-0.279,0.443-0.647,0.785-1.106,1.021c-0.46,0.238-1.078,0.357-1.857,0.357c-0.759,0-1.33-0.082-1.708-0.246
				c-0.381-0.166-0.57-0.467-0.57-0.903c0-0.297,0.089-0.527,0.271-0.688c0.18-0.161,0.448-0.243,0.801-0.243
				c0.14,0,0.276,0.02,0.409,0.059c0.164,0.037,0.307,0.057,0.427,0.057c0.297,0,0.532-0.044,0.704-0.134
				c0.17-0.088,0.324-0.241,0.461-0.461C378.806,776.837,378.963,776.515,379.14,776.091z"/>
		</g>
		<g>
			<path style="fill:#333333;" d="M416.703,765.45h0.618v-0.778c0-0.814,0.1-1.457,0.307-1.938c0.204-0.479,0.556-0.826,1.047-1.045
				c0.49-0.217,1.163-0.326,2.017-0.326c1.52,0,2.272,0.367,2.272,1.114c0,0.238-0.079,0.444-0.24,0.615
				c-0.154,0.169-0.343,0.256-0.558,0.256c-0.1,0-0.278-0.019-0.527-0.06c-0.237-0.033-0.452-0.056-0.623-0.056
				c-0.468,0-0.767,0.141-0.905,0.415c-0.127,0.275-0.195,0.669-0.195,1.185v0.617h0.633c0.991,0,1.481,0.297,1.481,0.895
				c0,0.419-0.127,0.69-0.393,0.805c-0.262,0.114-0.624,0.171-1.089,0.171h-0.633v6.871c0,0.511-0.12,0.9-0.369,1.168
				c-0.241,0.272-0.554,0.406-0.942,0.406c-0.367,0-0.671-0.134-0.918-0.406c-0.244-0.268-0.364-0.657-0.364-1.168v-6.871h-0.714
				c-0.389,0-0.683-0.084-0.894-0.262c-0.209-0.171-0.314-0.399-0.314-0.678C415.399,765.757,415.834,765.45,416.703,765.45"/>
			<path style="fill:#333333;" d="M425.192,772.024v2.168c0,0.523-0.133,0.919-0.374,1.18c-0.247,0.266-0.559,0.395-0.938,0.395
				c-0.382,0-0.688-0.131-0.927-0.4c-0.236-0.264-0.36-0.656-0.36-1.174v-7.223c0-1.166,0.42-1.749,1.261-1.749
				c0.434,0,0.743,0.135,0.934,0.408c0.189,0.273,0.295,0.674,0.317,1.208c0.308-0.534,0.624-0.935,0.948-1.208
				c0.332-0.273,0.763-0.408,1.31-0.408c0.549,0,1.072,0.135,1.585,0.408c0.516,0.273,0.771,0.637,0.771,1.085
				c0,0.315-0.11,0.58-0.326,0.781c-0.22,0.209-0.454,0.312-0.706,0.312c-0.1,0-0.331-0.063-0.692-0.18
				c-0.365-0.113-0.688-0.173-0.963-0.173c-0.38,0-0.692,0.103-0.932,0.298c-0.242,0.205-0.431,0.497-0.564,0.887
				c-0.129,0.395-0.219,0.865-0.273,1.404C425.215,770.584,425.192,771.246,425.192,772.024"/>
			<path style="fill:#333333;" d="M437.113,771.131h-5.074c0.009,0.588,0.124,1.11,0.354,1.559c0.235,0.446,0.54,0.786,0.925,1.017
				c0.385,0.227,0.804,0.34,1.268,0.34c0.311,0,0.593-0.033,0.85-0.111c0.254-0.069,0.505-0.186,0.745-0.341
				c0.242-0.152,0.46-0.318,0.664-0.5c0.202-0.175,0.467-0.416,0.79-0.719c0.135-0.113,0.324-0.174,0.568-0.174
				c0.269,0,0.481,0.074,0.649,0.222c0.166,0.147,0.243,0.351,0.243,0.617c0,0.235-0.089,0.508-0.268,0.819
				c-0.188,0.317-0.463,0.616-0.836,0.906c-0.374,0.285-0.839,0.527-1.398,0.714c-0.559,0.19-1.206,0.286-1.932,0.286
				c-1.671,0-2.964-0.473-3.887-1.422c-0.924-0.952-1.392-2.242-1.392-3.868c0-0.767,0.117-1.478,0.348-2.135
				c0.225-0.658,0.558-1.216,0.999-1.688c0.436-0.471,0.97-0.828,1.612-1.078c0.638-0.249,1.347-0.374,2.128-0.374
				c1.011,0,1.881,0.214,2.606,0.646c0.724,0.423,1.273,0.977,1.629,1.654c0.361,0.681,0.542,1.368,0.542,2.074
				c0,0.648-0.188,1.07-0.561,1.266C438.315,771.035,437.791,771.131,437.113,771.131 M432.039,769.657h4.701
				c-0.063-0.885-0.298-1.55-0.714-1.986c-0.418-0.442-0.959-0.66-1.641-0.66c-0.645,0-1.177,0.22-1.592,0.669
				C432.38,768.125,432.126,768.784,432.039,769.657"/>
			<path style="fill:#333333;" d="M447.9,771.131h-5.073c0.006,0.588,0.125,1.11,0.354,1.559c0.231,0.446,0.539,0.786,0.921,1.017
				c0.383,0.227,0.806,0.34,1.271,0.34c0.308,0,0.593-0.033,0.845-0.111c0.259-0.069,0.506-0.186,0.75-0.341
				c0.242-0.152,0.46-0.318,0.664-0.5c0.199-0.175,0.464-0.416,0.788-0.719c0.135-0.113,0.326-0.174,0.568-0.174
				c0.268,0,0.483,0.074,0.65,0.222c0.165,0.147,0.24,0.351,0.24,0.617c0,0.235-0.087,0.508-0.273,0.819
				c-0.177,0.317-0.455,0.616-0.83,0.906c-0.37,0.285-0.84,0.527-1.395,0.714c-0.558,0.19-1.208,0.286-1.935,0.286
				c-1.667,0-2.959-0.473-3.887-1.422c-0.924-0.952-1.389-2.242-1.389-3.868c0-0.767,0.116-1.478,0.348-2.135
				c0.227-0.658,0.559-1.216,0.996-1.688c0.436-0.471,0.973-0.828,1.614-1.078c0.638-0.249,1.351-0.374,2.129-0.374
				c1.009,0,1.878,0.214,2.613,0.646c0.72,0.423,1.266,0.977,1.621,1.654c0.359,0.681,0.545,1.368,0.545,2.074
				c0,0.648-0.191,1.07-0.561,1.266C449.1,771.035,448.576,771.131,447.9,771.131 M442.827,769.657h4.701
				c-0.063-0.885-0.304-1.55-0.715-1.986c-0.421-0.442-0.962-0.66-1.643-0.66c-0.645,0-1.176,0.22-1.593,0.669
				C443.165,768.125,442.911,768.784,442.827,769.657"/>
			<path style="fill:#333333;" d="M453.58,766.679v0.311c0.486-0.601,0.994-1.042,1.524-1.324c0.519-0.284,1.118-0.427,1.782-0.427
				c0.795,0,1.535,0.208,2.207,0.617c0.671,0.414,1.198,1.016,1.589,1.807c0.39,0.795,0.586,1.729,0.586,2.813
				c0,0.796-0.112,1.531-0.336,2.201c-0.224,0.668-0.537,1.227-0.929,1.68c-0.393,0.45-0.855,0.802-1.39,1.046
				c-0.542,0.241-1.111,0.363-1.728,0.363c-0.738,0-1.364-0.148-1.865-0.447c-0.503-0.292-0.982-0.733-1.441-1.306v3.893
				c0,1.136-0.416,1.71-1.244,1.71c-0.49,0-0.809-0.146-0.972-0.44c-0.151-0.299-0.233-0.724-0.233-1.291v-11.193
				c0-0.495,0.106-0.859,0.32-1.107c0.215-0.239,0.512-0.364,0.885-0.364c0.369,0,0.666,0.125,0.896,0.374
				C453.467,765.848,453.58,766.205,453.58,766.679 M458.664,770.447c0-0.684-0.107-1.273-0.315-1.763
				c-0.209-0.492-0.499-0.867-0.866-1.128c-0.367-0.263-0.782-0.396-1.232-0.396c-0.714,0-1.318,0.284-1.809,0.844
				c-0.492,0.566-0.739,1.396-0.739,2.493c0,1.026,0.244,1.833,0.735,2.406c0.487,0.573,1.086,0.858,1.813,0.858
				c0.429,0,0.83-0.126,1.197-0.372c0.371-0.253,0.665-0.627,0.884-1.127C458.553,771.76,458.664,771.155,458.664,770.447"/>
			<path style="fill:#333333;" d="M463.88,764.013c-0.362,0-0.669-0.114-0.923-0.335c-0.26-0.223-0.388-0.532-0.388-0.937
				c0-0.368,0.131-0.67,0.396-0.91c0.262-0.234,0.566-0.356,0.914-0.356c0.34,0,0.636,0.107,0.894,0.319
				c0.26,0.219,0.391,0.534,0.391,0.946c0,0.399-0.127,0.711-0.378,0.936C464.532,763.899,464.231,764.013,463.88,764.013
				 M465.164,766.692v7.502c0,0.516-0.124,0.908-0.37,1.172c-0.25,0.27-0.561,0.4-0.941,0.4c-0.381,0-0.685-0.134-0.928-0.406
				c-0.233-0.276-0.355-0.665-0.355-1.166v-7.428c0-0.51,0.122-0.895,0.355-1.154c0.243-0.265,0.547-0.392,0.928-0.392
				c0.381,0,0.691,0.127,0.941,0.392C465.04,765.872,465.164,766.234,465.164,766.692"/>
			<path style="fill:#333333;" d="M473.523,774.583l-2.284-3.766l-1.408,1.328v2.065c0,0.499-0.133,0.882-0.397,1.149
				c-0.257,0.272-0.566,0.406-0.906,0.406c-0.398,0-0.715-0.131-0.94-0.4c-0.227-0.264-0.344-0.656-0.344-1.174v-11.063
				c0-0.573,0.114-1.011,0.331-1.313c0.223-0.305,0.545-0.452,0.953-0.452c0.399,0,0.713,0.137,0.949,0.411
				c0.234,0.271,0.354,0.674,0.354,1.202v6.293l2.916-3.063c0.362-0.376,0.633-0.641,0.827-0.778
				c0.189-0.139,0.419-0.208,0.689-0.208c0.326,0,0.594,0.104,0.815,0.309c0.211,0.206,0.32,0.466,0.32,0.773
				c0,0.379-0.354,0.889-1.055,1.521l-1.377,1.263l2.659,4.183c0.193,0.313,0.339,0.544,0.424,0.706
				c0.084,0.159,0.13,0.319,0.13,0.462c0,0.413-0.114,0.734-0.341,0.976c-0.225,0.236-0.523,0.354-0.886,0.354
				c-0.316,0-0.564-0.081-0.733-0.256C474.051,775.337,473.813,775.027,473.523,774.583"/>
			<path style="fill:#333333;" d="M479.159,775.766c-0.392,0-0.728-0.126-1.014-0.381c-0.284-0.249-0.429-0.606-0.429-1.065
				c0-0.386,0.138-0.719,0.41-0.995c0.274-0.279,0.607-0.419,1.008-0.419c0.397,0,0.735,0.14,1.022,0.412
				c0.279,0.275,0.422,0.612,0.422,1.002c0,0.452-0.143,0.808-0.422,1.06C479.87,775.64,479.538,775.766,479.159,775.766"/>
			<path style="fill:#333333;" d="M492.057,772.556c0,0.32-0.097,0.668-0.291,1.034c-0.191,0.37-0.488,0.718-0.886,1.05
				c-0.395,0.332-0.892,0.602-1.495,0.804c-0.601,0.202-1.28,0.307-2.03,0.307c-1.606,0-2.858-0.47-3.758-1.401
				c-0.896-0.936-1.346-2.189-1.346-3.76c0-1.067,0.204-2.006,0.619-2.824c0.407-0.815,1.004-1.447,1.781-1.894
				c0.779-0.448,1.716-0.67,2.794-0.67c0.674,0,1.288,0.098,1.852,0.295c0.561,0.195,1.032,0.451,1.425,0.759
				c0.387,0.315,0.685,0.644,0.89,0.992c0.207,0.352,0.308,0.681,0.308,0.987c0,0.308-0.113,0.571-0.343,0.787
				c-0.235,0.215-0.516,0.324-0.839,0.324c-0.219,0-0.398-0.057-0.541-0.166c-0.144-0.112-0.305-0.29-0.479-0.542
				c-0.317-0.478-0.646-0.842-0.996-1.079c-0.343-0.243-0.78-0.362-1.314-0.362c-0.762,0-1.384,0.298-1.854,0.898
				c-0.468,0.596-0.703,1.42-0.703,2.454c0,0.488,0.063,0.939,0.183,1.348c0.117,0.407,0.291,0.756,0.52,1.044
				c0.23,0.287,0.504,0.505,0.826,0.654c0.324,0.153,0.681,0.226,1.064,0.226c0.521,0,0.967-0.12,1.337-0.36
				c0.376-0.241,0.702-0.607,0.986-1.102c0.158-0.291,0.327-0.518,0.509-0.684c0.183-0.163,0.409-0.249,0.676-0.249
				c0.316,0,0.58,0.123,0.786,0.362C491.951,772.027,492.057,772.286,492.057,772.556"/>
			<path style="fill:#333333;" d="M503.248,770.496c0,0.769-0.122,1.484-0.355,2.139c-0.247,0.652-0.592,1.213-1.05,1.679
				c-0.455,0.469-1.002,0.828-1.632,1.08c-0.64,0.247-1.35,0.375-2.139,0.375c-0.785,0-1.493-0.128-2.121-0.383
				c-0.623-0.249-1.171-0.614-1.626-1.082c-0.461-0.477-0.809-1.034-1.052-1.677c-0.229-0.644-0.351-1.355-0.351-2.131
				c0-0.786,0.124-1.506,0.358-2.158c0.242-0.654,0.589-1.212,1.039-1.673c0.451-0.462,0.993-0.817,1.631-1.07
				c0.643-0.249,1.35-0.374,2.121-0.374c0.784,0,1.498,0.125,2.139,0.382c0.638,0.251,1.183,0.614,1.644,1.079
				c0.458,0.475,0.803,1.029,1.04,1.672C503.128,769.004,503.248,769.713,503.248,770.496 M500.644,770.496
				c0-1.059-0.234-1.881-0.698-2.469c-0.463-0.596-1.09-0.888-1.874-0.888c-0.508,0-0.955,0.132-1.343,0.394
				c-0.387,0.262-0.681,0.649-0.89,1.164c-0.209,0.514-0.315,1.113-0.315,1.799c0,0.679,0.103,1.267,0.31,1.773
				c0.208,0.511,0.502,0.897,0.886,1.166c0.386,0.267,0.835,0.404,1.353,0.404c0.784,0,1.411-0.296,1.874-0.892
				C500.41,772.357,500.644,771.537,500.644,770.496"/>
			<path style="fill:#333333;" d="M513.14,770.686v3.446c0,0.547-0.12,0.951-0.369,1.228c-0.25,0.272-0.571,0.408-0.978,0.408
				c-0.393,0-0.714-0.136-0.951-0.408c-0.247-0.276-0.372-0.681-0.372-1.228v-4.131c0-0.653-0.02-1.162-0.063-1.524
				c-0.046-0.354-0.168-0.655-0.362-0.883c-0.196-0.235-0.509-0.352-0.931-0.352c-0.851,0-1.407,0.29-1.677,0.881
				c-0.268,0.576-0.406,1.413-0.406,2.507v3.502c0,0.538-0.122,0.946-0.361,1.224c-0.249,0.273-0.567,0.412-0.965,0.412
				c-0.396,0-0.717-0.139-0.967-0.412c-0.252-0.277-0.376-0.686-0.376-1.224v-7.419c0-0.489,0.111-0.86,0.335-1.111
				c0.229-0.257,0.526-0.382,0.89-0.382c0.356,0,0.651,0.123,0.892,0.355c0.236,0.238,0.354,0.566,0.354,0.984v0.245
				c0.453-0.535,0.935-0.932,1.444-1.181c0.517-0.26,1.082-0.386,1.713-0.386c0.651,0,1.211,0.131,1.678,0.39
				c0.47,0.261,0.853,0.655,1.16,1.177c0.439-0.528,0.909-0.923,1.41-1.181c0.5-0.257,1.053-0.386,1.662-0.386
				c0.706,0,1.321,0.143,1.834,0.419c0.51,0.278,0.893,0.68,1.148,1.195c0.221,0.473,0.33,1.21,0.33,2.217v5.063
				c0,0.547-0.122,0.951-0.367,1.228c-0.246,0.272-0.575,0.408-0.979,0.408c-0.395,0-0.714-0.139-0.965-0.412
				c-0.25-0.277-0.376-0.686-0.376-1.224v-4.361c0-0.559-0.023-1.003-0.069-1.338c-0.047-0.337-0.177-0.62-0.383-0.847
				c-0.212-0.228-0.53-0.344-0.953-0.344c-0.342,0-0.666,0.107-0.974,0.308c-0.307,0.198-0.547,0.477-0.721,0.813
				C513.238,768.801,513.14,769.576,513.14,770.686"/>
		</g>
		<g>
			<path style="fill:#333333;" d="M392.435,769.868c-0.002-0.005-0.002-0.01-0.002-0.018
				C392.433,769.858,392.433,769.863,392.435,769.868z"/>
			<path style="fill:#333333;" d="M392.566,770.697c0.002,0,0.002,0,0.003,0c-0.05-0.236-0.088-0.471-0.119-0.702
				C392.48,770.228,392.519,770.463,392.566,770.697z"/>
			<path style="fill:#333333;" d="M393.424,773.103c-0.006-0.01-0.011-0.021-0.017-0.033
				C393.413,773.082,393.418,773.093,393.424,773.103z"/>
			<path style="fill:#333333;" d="M393.342,772.943c-0.022-0.044-0.044-0.09-0.065-0.134
				C393.298,772.856,393.32,772.899,393.342,772.943z"/>
			<path style="fill:#333333;" d="M392.807,771.624c0.127,0.4,0.28,0.788,0.457,1.158c-0.18-0.378-0.33-0.767-0.454-1.158
				C392.809,771.624,392.808,771.624,392.807,771.624z"/>
			<path style="fill:#333333;" d="M402.473,759.931c0.501,0,0.871,0.04,1.295,0.111l0.12-0.763c0,0-1.171-0.36-2.71-0.234
				l-0.121-0.415c0.478-0.101,0.838-0.526,0.838-1.034c0-0.582-0.474-1.054-1.057-1.054s-1.056,0.472-1.056,1.054
				c0,0.508,0.358,0.934,0.836,1.034l0.134,0.463c-1.634,0.225-2.935,0.862-2.935,0.862l0.23,0.705
				c0.989-0.329,1.846-0.529,2.624-0.613C401.432,759.966,402.005,759.931,402.473,759.931z"/>
			<path style="fill:#333333;" d="M393.405,763.79l0.006-0.008c0.039-0.05,0.076-0.097,0.113-0.143l-0.313-0.226l-0.488-0.356
				c-0.027,0.038-0.795,0.744-1.401,2.048c-0.025-0.041-0.056-0.081-0.09-0.119c-0.182-0.198-0.436-0.3-0.758-0.294
				c-0.004,0-0.009,0-0.015,0c-0.2,0-0.337-0.066-0.427-0.147c0.089-0.113,0.143-0.256,0.143-0.413c0-0.368-0.3-0.669-0.669-0.669
				c-0.369,0-0.669,0.301-0.669,0.669c0,0.37,0.3,0.669,0.669,0.669c0.058,0,0.113-0.01,0.167-0.021
				c0.164,0.183,0.425,0.342,0.808,0.334c0.197-0.002,0.341,0.049,0.438,0.155c0.111,0.121,0.148,0.296,0.16,0.428
				c-0.001,0.002-0.001,0.005-0.003,0.005c-0.435,1.189-0.311,2.67-0.311,2.67l1.057,0.042c0.022-0.539,0.099-1.482,0.372-2.23
				C392.719,764.734,393.378,763.828,393.405,763.79z"/>
			<path style="fill:#333333;" d="M411.672,760.815c-0.368,0-0.669,0.299-0.669,0.669c0,0.058,0.009,0.112,0.023,0.165
				c-0.184,0.166-0.343,0.428-0.337,0.81c0.003,0.197-0.048,0.34-0.154,0.437c-0.085,0.075-0.191,0.115-0.296,0.141
				c-0.787-1.103-1.756-1.775-1.756-1.775l-0.759,0.814c0.573,0.521,1.159,1.175,1.729,1.99c0.394,0.563,0.799,1.29,1.136,2.015
				l1.024-0.486c0,0-0.468-1.155-1.126-2.191c0.114-0.04,0.229-0.103,0.331-0.192c0.2-0.181,0.299-0.436,0.293-0.758
				c-0.002-0.208,0.067-0.349,0.149-0.441c0.114,0.087,0.257,0.143,0.412,0.143c0.371,0,0.67-0.3,0.67-0.669
				C412.342,761.114,412.043,760.815,411.672,760.815z"/>
			<path style="fill:#333333;" d="M409.015,770.017c-1.409,0.687-3.728,1.594-6.781,2.02c-1.198,0.166-2.359,0.228-3.428,0.228
				c-1.391,0-2.62-0.104-3.563-0.223c-1.076-0.136-1.917-0.302-2.432-0.418c0.124,0.392,0.273,0.78,0.454,1.158
				c0.003,0.01,0.008,0.021,0.013,0.027c0.021,0.044,0.043,0.09,0.065,0.134c0.021,0.044,0.043,0.087,0.065,0.127
				c0.006,0.012,0.011,0.023,0.017,0.033c0.303,0.57,0.667,1.095,1.081,1.549c1.44,1.575,2.907,1.824,2.921,1.826l0.023,0.003
				l0.022,0.008c0.013,0.005,1.314,0.425,3.292,0.425c1.945,0,3.854-0.393,5.674-1.167c1.348-0.689,2.622-1.736,3.254-2.67
				c0.488-0.723,0.841-1.493,1.05-2.294c0.111-0.426,0.199-1.107,0.147-1.825C410.49,769.224,409.863,769.604,409.015,770.017z"/>
			<path style="fill:#333333;" d="M393.857,764.124c-0.041,0.06-0.652,0.925-1.135,2.253c-0.362,0.995-0.346,2.443-0.346,2.46v0.003
				c0,0.34,0.019,0.677,0.057,1.011c0,0.008,0,0.013,0.002,0.018c0.004,0.043,0.011,0.084,0.015,0.127
				c0.03,0.231,0.069,0.466,0.119,0.702c0.7,0.178,4.878,1.152,9.548,0.502c2.927-0.407,5.149-1.273,6.499-1.927
				c1.121-0.544,1.842-1.036,2.12-1.238c-0.277-1.028-1.042-2.641-1.743-3.646c-2.005-2.865-4.167-3.601-5.277-3.783
				c-0.424-0.069-0.763-0.109-1.243-0.109c-0.447,0-1.002,0.036-1.743,0.114c-0.743,0.077-1.572,0.273-2.532,0.596
				c-1.348,0.451-2.567,1.159-3.527,2.048l-0.033,0.03C394.495,763.414,394.199,763.689,393.857,764.124z M406.127,763.457
				c0.961,0,1.743,0.781,1.743,1.743c0,0.962-0.782,1.744-1.743,1.744c-0.962,0-1.742-0.782-1.742-1.744
				C404.385,764.238,405.165,763.457,406.127,763.457z M397.885,763.387c1.557,0,2.817,1.262,2.817,2.817
				c0,1.556-1.26,2.815-2.817,2.815c-1.555,0-2.816-1.259-2.816-2.815C395.069,764.649,396.33,763.387,397.885,763.387z"/>
		</g>
	</g>
	<g>
		
			<path style="fill:#56BFB7;stroke:#333333;stroke-width:2.5;stroke-linecap:round;stroke-linejoin:round;stroke-miterlimit:10;" d="
			M678.999,195.009L678.999,195.009c45.564,0,82.5-36.937,82.5-82.5v0c0-45.564-36.936-82.5-82.5-82.5h0
			c-45.563,0-82.5,36.936-82.5,82.5v0C596.5,158.072,633.436,195.009,678.999,195.009z"/>
	</g>
	<g>
		
			<path style="fill:#56BFB7;stroke:#333333;stroke-width:2.5;stroke-linecap:round;stroke-linejoin:round;stroke-miterlimit:10;" d="
			M678.999,375.725L678.999,375.725c45.564,0,82.5-36.937,82.5-82.5v0c0-45.563-36.936-82.5-82.5-82.5h0
			c-45.563,0-82.5,36.936-82.5,82.5v0C596.5,338.789,633.436,375.725,678.999,375.725z"/>
	</g>
	<g>
		
			<path style="fill:#56BFB7;stroke:#333333;stroke-width:2.5;stroke-linecap:round;stroke-linejoin:round;stroke-miterlimit:10;" d="
			M678.999,556.442L678.999,556.442c45.564,0,82.5-36.936,82.5-82.5v0c0-45.564-36.936-82.5-82.5-82.5h0
			c-45.563,0-82.5,36.936-82.5,82.5v0C596.5,519.505,633.436,556.442,678.999,556.442z"/>
	</g>
	<g>
		
			<path style="fill:#56BFB7;stroke:#333333;stroke-width:2.5;stroke-linecap:round;stroke-linejoin:round;stroke-miterlimit:10;" d="
			M678.999,737.158L678.999,737.158c45.564,0,82.5-36.937,82.5-82.5v0c0-45.563-36.936-82.5-82.5-82.5h0
			c-45.563,0-82.5,36.936-82.5,82.5v0C596.5,700.221,633.436,737.158,678.999,737.158z"/>
	</g>
	<g>
		
			<path style="fill:#56BFB7;stroke:#333333;stroke-width:2.5;stroke-linecap:round;stroke-linejoin:round;stroke-miterlimit:10;" d="
			M493,195.009L493,195.009c45.564,0,82.5-36.937,82.5-82.5v0c0-45.564-36.936-82.5-82.5-82.5h0c-45.563,0-82.5,36.936-82.5,82.5v0
			C410.5,158.072,447.436,195.009,493,195.009z"/>
	</g>
	<g>
		
			<path style="fill:#56BFB7;stroke:#333333;stroke-width:2.5;stroke-linecap:round;stroke-linejoin:round;stroke-miterlimit:10;" d="
			M493,375.725L493,375.725c45.564,0,82.5-36.937,82.5-82.5v0c0-45.563-36.936-82.5-82.5-82.5h0c-45.563,0-82.5,36.936-82.5,82.5v0
			C410.5,338.789,447.436,375.725,493,375.725z"/>
	</g>
	<g>
		
			<path style="fill:#56BFB7;stroke:#333333;stroke-width:2.5;stroke-linecap:round;stroke-linejoin:round;stroke-miterlimit:10;" d="
			M493,556.442L493,556.442c45.564,0,82.5-36.936,82.5-82.5v0c0-45.564-36.936-82.5-82.5-82.5h0c-45.563,0-82.5,36.936-82.5,82.5v0
			C410.5,519.505,447.436,556.442,493,556.442z"/>
	</g>
	<g>
		
			<path style="fill:#56BFB7;stroke:#333333;stroke-width:2.5;stroke-linecap:round;stroke-linejoin:round;stroke-miterlimit:10;" d="
			M493,737.158L493,737.158c45.564,0,82.5-36.937,82.5-82.5v0c0-45.563-36.936-82.5-82.5-82.5h0c-45.563,0-82.5,36.936-82.5,82.5v0
			C410.5,700.221,447.436,737.158,493,737.158z"/>
	</g>
	<g>
		
			<path style="fill:#56BFB7;stroke:#333333;stroke-width:2.5;stroke-linecap:round;stroke-linejoin:round;stroke-miterlimit:10;" d="
			M307,195.009L307,195.009c45.564,0,82.5-36.937,82.5-82.5v0c0-45.564-36.936-82.5-82.5-82.5h0c-45.564,0-82.5,36.936-82.5,82.5v0
			C224.5,158.072,261.437,195.009,307,195.009z"/>
	</g>
	<g>
		
			<path style="fill:#56BFB7;stroke:#333333;stroke-width:2.5;stroke-linecap:round;stroke-linejoin:round;stroke-miterlimit:10;" d="
			M307,375.725L307,375.725c45.564,0,82.5-36.937,82.5-82.5v0c0-45.563-36.936-82.5-82.5-82.5h0c-45.564,0-82.5,36.936-82.5,82.5v0
			C224.5,338.789,261.437,375.725,307,375.725z"/>
	</g>
	<g>
		
			<path style="fill:#56BFB7;stroke:#333333;stroke-width:2.5;stroke-linecap:round;stroke-linejoin:round;stroke-miterlimit:10;" d="
			M307,556.442L307,556.442c45.564,0,82.5-36.936,82.5-82.5v0c0-45.564-36.936-82.5-82.5-82.5h0c-45.564,0-82.5,36.936-82.5,82.5v0
			C224.5,519.505,261.437,556.442,307,556.442z"/>
	</g>
	<g>
		
			<path style="fill:#56BFB7;stroke:#333333;stroke-width:2.5;stroke-linecap:round;stroke-linejoin:round;stroke-miterlimit:10;" d="
			M307,737.158L307,737.158c45.564,0,82.5-36.937,82.5-82.5v0c0-45.563-36.936-82.5-82.5-82.5h0c-45.564,0-82.5,36.936-82.5,82.5v0
			C224.5,700.221,261.437,737.158,307,737.158z"/>
	</g>
	<g>
		
			<path style="fill:#56BFB7;stroke:#333333;stroke-width:2.5;stroke-linecap:round;stroke-linejoin:round;stroke-miterlimit:10;" d="
			M121,195.009L121,195.009c45.564,0,82.5-36.937,82.5-82.5v0c0-45.564-36.936-82.5-82.5-82.5h0c-45.563,0-82.5,36.936-82.5,82.5v0
			C38.5,158.072,75.437,195.009,121,195.009z"/>
	</g>
	<g>
		
			<path style="fill:#56BFB7;stroke:#333333;stroke-width:2.5;stroke-linecap:round;stroke-linejoin:round;stroke-miterlimit:10;" d="
			M121,375.725L121,375.725c45.564,0,82.5-36.937,82.5-82.5v0c0-45.563-36.936-82.5-82.5-82.5h0c-45.563,0-82.5,36.936-82.5,82.5v0
			C38.5,338.789,75.437,375.725,121,375.725z"/>
	</g>
	<g>
		
			<path style="fill:#56BFB7;stroke:#333333;stroke-width:2.5;stroke-linecap:round;stroke-linejoin:round;stroke-miterlimit:10;" d="
			M121,556.442L121,556.442c45.564,0,82.5-36.936,82.5-82.5v0c0-45.564-36.936-82.5-82.5-82.5h0c-45.563,0-82.5,36.936-82.5,82.5v0
			C38.5,519.505,75.437,556.442,121,556.442z"/>
	</g>
	<g>
		
			<path style="fill:#56BFB7;stroke:#333333;stroke-width:2.5;stroke-linecap:round;stroke-linejoin:round;stroke-miterlimit:10;" d="
			M121,737.158L121,737.158c45.564,0,82.5-36.937,82.5-82.5v0c0-45.563-36.936-82.5-82.5-82.5h0c-45.563,0-82.5,36.936-82.5,82.5v0
			C38.5,700.221,75.437,737.158,121,737.158z"/>
	</g>
</g>
<g id="objects">
	<g>
		
			<polyline style="fill:none;stroke:#333333;stroke-width:2.5;stroke-linecap:round;stroke-linejoin:round;stroke-miterlimit:10;" points="
			460.599,80.272 448.365,80.272 448.365,104.741 497.117,118.087 497.117,129.58 		"/>
		
			<path style="fill:#F2F2F2;stroke:#333333;stroke-width:2.5;stroke-linecap:round;stroke-linejoin:round;stroke-miterlimit:10;" d="
			M528.635,95.472h-63.036c-2.761,0-5-2.239-5-5V70.071c0-2.761,2.239-5,5-5h63.036c2.761,0,5,2.239,5,5v20.401
			C533.635,93.233,531.396,95.472,528.635,95.472z"/>
		
			<rect x="489.146" y="129.58" style="fill:#FCAE2E;stroke:#333333;stroke-width:2.5;stroke-linecap:round;stroke-linejoin:round;stroke-miterlimit:10;" width="15.942" height="41.152"/>
		
			<line style="fill:none;stroke:#333333;stroke-width:2.5;stroke-linecap:round;stroke-linejoin:round;stroke-miterlimit:10;" x1="489.146" y1="135.512" x2="505.088" y2="135.512"/>
		
			<line style="fill:none;stroke:#333333;stroke-width:2.5;stroke-linecap:round;stroke-linejoin:round;stroke-miterlimit:10;" x1="489.146" y1="164.677" x2="505.088" y2="164.677"/>
		
			<path style="fill:#F12D45;stroke:#333333;stroke-width:2.5;stroke-linecap:round;stroke-linejoin:round;stroke-miterlimit:10;" d="
			M499.23,65.071V77.22c0,2.004,1.624,3.628,3.628,3.628l0,0c2.004,0,3.628-1.624,3.628-3.628v-0.151
			c0-2.004,1.624-3.628,3.628-3.628l0,0c2.004,0,3.628,1.625,3.628,3.628v6.868c0,2.004,1.624,3.628,3.628,3.628l0,0
			c2.004,0,3.628-1.624,3.628-3.628V65.071H499.23z"/>
	</g>
	<g>
		
			<polygon style="fill:#F2F2F2;stroke:#333333;stroke-width:2.5;stroke-linecap:round;stroke-linejoin:round;stroke-miterlimit:10;" points="
			359.401,90.067 329.442,60.108 309.772,84.62 334.889,109.737 		"/>
		<g>
			
				<path style="fill:#FCAE2E;stroke:#333333;stroke-width:2.5;stroke-linecap:round;stroke-linejoin:round;stroke-miterlimit:10;" d="
				M306.979,82.093L293.512,95.56l-0.225,17.015l-29.479,26.218c-5.148,4.579-5.381,12.546-0.509,17.418
				c4.872,4.872,12.839,4.639,17.418-0.509l26.218-29.479l17.015-0.225l13.467-13.467L306.979,82.093z M274.387,150.51
				c-1.488,1.488-3.9,1.488-5.387,0c-1.488-1.488-1.488-3.9,0-5.387c1.488-1.488,3.9-1.488,5.387,0
				C275.874,146.61,275.874,149.022,274.387,150.51z"/>
		</g>
		
			<polygon style="fill:#979795;stroke:#333333;stroke-width:2.5;stroke-linecap:round;stroke-linejoin:round;stroke-miterlimit:10;" points="
			300.454,88.857 330.652,119.055 337.297,112.411 306.979,82.093 		"/>
		
			<path style="fill:#F12D45;stroke:#333333;stroke-width:2.5;stroke-linecap:round;stroke-linejoin:round;stroke-miterlimit:10;" d="
			M336.725,67.391l-8.59,8.59c-1.417,1.417-1.417,3.714,0,5.131l0,0c1.417,1.417,3.714,1.417,5.131,0l0.107-0.107
			c1.417-1.417,3.714-1.417,5.131,0l0,0c1.417,1.417,1.417,3.714,0,5.131l-4.857,4.857c-1.417,1.417-1.417,3.714,0,5.131l0,0
			c1.417,1.417,3.714,1.417,5.131,0l13.34-13.34L336.725,67.391z"/>
	</g>
	<g>
		
			<rect x="91.78" y="112.408" style="fill:#F2F2F2;stroke:#333333;stroke-width:2.5;stroke-linecap:round;stroke-linejoin:round;stroke-miterlimit:10;" width="58.44" height="43.136"/>
		
			<rect x="89.987" y="102.733" style="fill:#F2F2F2;stroke:#333333;stroke-width:2.5;stroke-linecap:round;stroke-linejoin:round;stroke-miterlimit:10;" width="62.027" height="9.675"/>
		<path style="fill:none;stroke:#333333;stroke-width:2.5;stroke-linecap:round;stroke-linejoin:round;stroke-miterlimit:10;" d="
			M150.221,118.254h7.07v-14.061c0-17.367-14.078-31.445-31.445-31.445h-9.69c-17.367,0-31.445,14.078-31.445,31.445v14.061h7.07"/>
		
			<path style="fill:#F12D45;stroke:#333333;stroke-width:2.5;stroke-linecap:round;stroke-linejoin:round;stroke-miterlimit:10;" d="
			M99.231,112.585v19.149c0,2.004,1.624,3.628,3.628,3.628l0,0c2.004,0,3.628-1.624,3.628-3.628v-0.151
			c0-2.004,1.624-3.628,3.628-3.628h0c2.004,0,3.628,1.624,3.628,3.628v8.869c0,2.004,1.624,3.628,3.628,3.628l0,0
			c2.004,0,3.628-1.624,3.628-3.628v-27.867H99.231z"/>
		
			<rect x="109.918" y="69.474" style="fill:#F2F2F2;stroke:#333333;stroke-width:2.5;stroke-linecap:round;stroke-linejoin:round;stroke-miterlimit:10;" width="22.165" height="6.249"/>
	</g>
	<g>
		
			<path style="fill:#F12D45;stroke:#333333;stroke-width:2.5;stroke-linecap:round;stroke-linejoin:round;stroke-miterlimit:10;" d="
			M726.8,146.148h-95.602c-1.105,0-2-0.896-2-2v-30.293H728.8v30.293C728.8,145.253,727.905,146.148,726.8,146.148z"/>
		
			<path style="fill:#F12D45;stroke:#333333;stroke-width:2.5;stroke-linecap:round;stroke-linejoin:round;stroke-miterlimit:10;" d="
			M729.91,113.855H628.089c-1.104,0-2-0.895-2-2V90.858c0-1.105,0.896-2,2-2H729.91c1.105,0,2,0.895,2,2v20.998
			C731.91,112.96,731.015,113.855,729.91,113.855z"/>
		
			<rect x="670.391" y="113.855" style="fill:#FCAE2E;stroke:#333333;stroke-width:2.5;stroke-linecap:round;stroke-linejoin:round;stroke-miterlimit:10;" width="17.216" height="14.687"/>
		<g>
			
				<path style="fill:#FCAE2E;stroke:#333333;stroke-width:2.5;stroke-linecap:round;stroke-linejoin:round;stroke-miterlimit:10;" d="
				M702.052,88.858h-9.338v-5.982c0-2.574-2.095-4.669-4.669-4.669h-18.092c-2.574,0-4.669,2.095-4.669,4.669v5.982h-9.338v-5.982
				c0-7.724,6.283-14.007,14.007-14.007h18.092c7.724,0,14.006,6.283,14.006,14.007V88.858z"/>
		</g>
	</g>
	<g>
		
			<path style="fill:#979795;stroke:#333333;stroke-width:2.5;stroke-linecap:round;stroke-linejoin:round;stroke-miterlimit:10;" d="
			M666.251,269.759l49.759-19.635c3.82-1.507,7.598,2.27,6.09,6.09l-19.635,49.759c-1.241,3.144-5.297,3.986-7.687,1.596
			l-30.124-30.124C662.265,275.056,663.107,271,666.251,269.759z"/>
		
			<path style="fill:#FCAE2E;stroke:#333333;stroke-width:2.5;stroke-linecap:round;stroke-linejoin:round;stroke-miterlimit:10;" d="
			M637.291,334.936l-0.002-0.002c-3.284-3.284-3.284-8.609,0-11.893l24.761-24.761l11.896,11.896l-24.761,24.761
			C645.9,338.22,640.575,338.22,637.291,334.936z"/>
		
			<path style="fill:#979795;stroke:#333333;stroke-width:2.5;stroke-linecap:round;stroke-linejoin:round;stroke-miterlimit:10;" d="
			M691.319,285.424l-4.518-4.518c-0.586-0.586-1.535-0.586-2.121,0l-20.001,20.001l6.64,6.639l20.001-20.001
			C691.904,286.96,691.904,286.01,691.319,285.424z"/>
	</g>
	<g>
		
			<polygon style="fill:#979795;stroke:#333333;stroke-width:2.5;stroke-linecap:round;stroke-linejoin:round;stroke-miterlimit:10;" points="
			533.724,290.15 490.768,247.194 498.65,239.313 520.765,245.664 549.488,274.387 		"/>
		
			<path style="fill:#FCAE2E;stroke:#333333;stroke-width:2.5;stroke-linecap:round;stroke-linejoin:round;stroke-miterlimit:10;" d="
			M450.625,334.393l-0.009-0.009c-3.353-3.353-3.263-8.817,0.2-12.057l59.384-55.7l8.182,8.182l-55.7,59.384
			C459.443,337.656,453.979,337.746,450.625,334.393z"/>
	</g>
	<g>
		
			<path style="fill:#FCAE2E;stroke:#333333;stroke-width:2.5;stroke-linecap:round;stroke-linejoin:round;stroke-miterlimit:10;" d="
			M276.878,297.954l-10.242,10.242l-7.879,7.878l-2.132,2.132c-1.578,1.578-1.578,4.137,0,5.715l0.011,0.011
			c1.578,1.578,4.137,1.578,5.715,0l1.314-1.314l15.396,20.528l-2.951,2.951c-1.578,1.578-1.578,4.136,0,5.715l0.011,0.011
			c1.578,1.578,4.137,1.578,5.715,0l2.133-2.133l9.98-9.98l12.343-12.343L276.878,297.954z M284.628,337.58l-15.397-20.527
			l3.131-3.131l-0.001-0.001l4.662-4.662l17.963,17.963l-6.763,6.763L284.628,337.58z"/>
		
			<polygon style="fill:#979795;stroke:#333333;stroke-width:2.5;stroke-linecap:round;stroke-linejoin:round;stroke-miterlimit:10;" points="
			300.484,321.56 309.717,318.261 309.018,308.477 318.265,305.197 317.57,295.406 326.81,292.137 326.111,282.352 335.362,279.066 
			334.668,269.273 343.921,265.985 343.235,256.18 352.495,252.881 352.496,252.879 340.065,240.448 279.718,300.795 		"/>
	</g>
	<g>
		
			<path style="fill:#FCAE2E;stroke:#333333;stroke-width:2.5;stroke-linecap:round;stroke-linejoin:round;stroke-miterlimit:10;" d="
			M140.208,287.264l-21.12-21.12l6.679-6.679c1.172-1.172,3.071-1.172,4.243,0l16.878,16.878c1.172,1.172,1.172,3.071,0,4.243
			L140.208,287.264z"/>
		
			<path style="fill:#979795;stroke:#333333;stroke-width:2.5;stroke-linecap:round;stroke-linejoin:round;stroke-miterlimit:10;" d="
			M140.216,327.864H88.488c-5.523,0-10-4.477-10-10v-41.728c0-5.523,4.477-10,10-10h41.728c5.523,0,10,4.477,10,10V327.864z"/>
		
			<ellipse transform="matrix(0.1618 -0.9868 0.9868 0.1618 -201.4282 356.8553)" style="fill:#F12D45;stroke:#333333;stroke-width:2.5;stroke-linecap:round;stroke-linejoin:round;stroke-miterlimit:10;" cx="109.352" cy="297" rx="19.497" ry="19.498"/>
		
			<polyline style="fill:none;stroke:#333333;stroke-width:2.5;stroke-linecap:round;stroke-linejoin:round;stroke-miterlimit:10;" points="
			140.216,319.319 167.513,319.319 167.513,310.524 		"/>
		
			<line style="fill:none;stroke:#333333;stroke-width:2.5;stroke-linecap:round;stroke-linejoin:round;stroke-miterlimit:10;" x1="123.139" y1="283.213" x2="95.565" y2="310.787"/>
		
			<line style="fill:none;stroke:#333333;stroke-width:2.5;stroke-linecap:round;stroke-linejoin:round;stroke-miterlimit:10;" x1="123.139" y1="310.787" x2="95.565" y2="283.213"/>
	</g>
	<g>
		
			<line style="fill:none;stroke:#333333;stroke-width:2.5;stroke-linecap:round;stroke-linejoin:round;stroke-miterlimit:10;" x1="707.919" y1="431.055" x2="707.919" y2="471.721"/>
		
			<polygon style="fill:#979795;stroke:#333333;stroke-width:2.5;stroke-linecap:round;stroke-linejoin:round;stroke-miterlimit:10;" points="
			674.542,460.962 692.415,468.069 707.919,468.069 707.919,434.707 692.415,434.707 674.542,441.814 		"/>
		<g>
			
				<line style="fill:none;stroke:#333333;stroke-width:2.5;stroke-linecap:round;stroke-linejoin:round;stroke-miterlimit:10;" x1="707.919" y1="441.024" x2="719.961" y2="441.024"/>
			
				<line style="fill:none;stroke:#333333;stroke-width:2.5;stroke-linecap:round;stroke-linejoin:round;stroke-miterlimit:10;" x1="707.919" y1="461.357" x2="719.961" y2="461.357"/>
		</g>
		<path style="fill:none;stroke:#333333;stroke-width:2.5;stroke-linecap:round;stroke-linejoin:round;stroke-miterlimit:10;" d="
			M674.542,451.388H654.57c-9.131,0-16.533,7.402-16.533,16.533v0c0,9.131,7.402,16.533,16.533,16.533h49.211
			c8.936,0,16.179,7.244,16.179,16.179v0.016c0,8.936-7.244,16.179-16.179,16.179h-65.744"/>
	</g>
	<g>
		
			<path style="fill:#F2F2F2;stroke:#333333;stroke-width:2.5;stroke-linecap:round;stroke-linejoin:round;stroke-miterlimit:10;" d="
			M479.032,428.881v61.261c0,1.657-1.343,3-3,3h-18.999c-1.657,0-3-1.343-3-3v-61.261c0-1.657,1.343-3,3-3h18.999
			C477.689,425.881,479.032,427.224,479.032,428.881z"/>
		<g>
			
				<path style="fill:#F2F2F2;stroke:#333333;stroke-width:2.5;stroke-linecap:round;stroke-linejoin:round;stroke-miterlimit:10;" d="
				M504.106,445.654l2.493-5.6c0.674-1.514-0.007-3.287-1.521-3.961l-17.356-7.727c-1.514-0.674-3.287,0.007-3.961,1.52
				l-25.347,56.93h3.067L504.106,445.654z"/>
			
				<path style="fill:#F2F2F2;stroke:#333333;stroke-width:2.5;stroke-linecap:round;stroke-linejoin:round;stroke-miterlimit:10;" d="
				M525.956,455.136l-13.198-13.667c-1.151-1.192-3.05-1.225-4.242-0.074l-4.41,4.258l-42.624,41.161h2.62l26.432-10.679
				l30.937-12.499l4.41-4.258C527.073,458.228,527.107,456.328,525.956,455.136z"/>
			
				<path style="fill:#F2F2F2;stroke:#333333;stroke-width:2.5;stroke-linecap:round;stroke-linejoin:round;stroke-miterlimit:10;" d="
				M538.178,480.614l-7.117-17.616c-0.621-1.536-2.369-2.279-3.905-1.658l-5.684,2.296l-30.937,12.499l-26.432,10.679h21.677h11.69
				h33.367l5.684-2.296C538.057,483.898,538.799,482.15,538.178,480.614z"/>
		</g>
		<g>
			<g>
				<path style="fill:none;" d="M466.533,495.912c-1.88,0-3.403,1.524-3.403,3.403c0,1.88,1.524,3.403,3.403,3.403
					c1.88,0,3.403-1.524,3.403-3.403C469.936,497.435,468.412,495.912,466.533,495.912z"/>
				
					<path style="fill:#F2F2F2;stroke:#333333;stroke-width:2.5;stroke-linecap:round;stroke-linejoin:round;stroke-miterlimit:10;" d="
					M536.967,486.815h-79.934c-1.657,0-3,1.343-3,3v18.999c0,1.657,1.343,3,3,3h79.934c1.657,0,3-1.343,3-3v-18.999
					C539.967,488.159,538.624,486.815,536.967,486.815z M466.533,502.718c-1.88,0-3.403-1.524-3.403-3.403
					c0-1.88,1.524-3.403,3.403-3.403c1.88,0,3.403,1.524,3.403,3.403C469.936,501.194,468.412,502.718,466.533,502.718z"/>
			</g>
		</g>
		
			<rect x="480.802" y="486.833" style="fill:#F12D45;stroke:#333333;stroke-width:2.5;stroke-linecap:round;stroke-linejoin:round;stroke-miterlimit:10;" width="19.729" height="24.981"/>
		
			<rect x="500.531" y="486.833" style="fill:#FCAE2E;stroke:#333333;stroke-width:2.5;stroke-linecap:round;stroke-linejoin:round;stroke-miterlimit:10;" width="19.729" height="24.981"/>
		
			<path style="fill:#979795;stroke:#333333;stroke-width:2.5;stroke-linecap:round;stroke-linejoin:round;stroke-miterlimit:10;" d="
			M536.989,511.814H520.26v-24.981h16.729c1.657,0,3,1.343,3,3v18.981C539.989,510.471,538.646,511.814,536.989,511.814z"/>
	</g>
	<g>
		<g>
			
				<path style="fill:#F2F2F2;stroke:#333333;stroke-width:2.5;stroke-linecap:round;stroke-linejoin:round;stroke-miterlimit:10;" d="
				M263.43,512.553h80.842V431.3L263.43,512.553z M329.621,497.895h-32.667l32.667-32.833V497.895z"/>
			
				<line style="fill:#F2F2F2;stroke:#333333;stroke-width:2.5;stroke-linecap:round;stroke-linejoin:round;stroke-miterlimit:10;" x1="344.273" y1="505.093" x2="335.787" y2="505.093"/>
			
				<line style="fill:#F2F2F2;stroke:#333333;stroke-width:2.5;stroke-linecap:round;stroke-linejoin:round;stroke-miterlimit:10;" x1="344.273" y1="494.463" x2="338.025" y2="494.463"/>
			
				<line style="fill:#F2F2F2;stroke:#333333;stroke-width:2.5;stroke-linecap:round;stroke-linejoin:round;stroke-miterlimit:10;" x1="344.273" y1="483.833" x2="335.787" y2="483.833"/>
			
				<line style="fill:#F2F2F2;stroke:#333333;stroke-width:2.5;stroke-linecap:round;stroke-linejoin:round;stroke-miterlimit:10;" x1="344.273" y1="473.204" x2="338.025" y2="473.204"/>
			
				<line style="fill:#F2F2F2;stroke:#333333;stroke-width:2.5;stroke-linecap:round;stroke-linejoin:round;stroke-miterlimit:10;" x1="344.273" y1="462.574" x2="335.787" y2="462.574"/>
			
				<line style="fill:#F2F2F2;stroke:#333333;stroke-width:2.5;stroke-linecap:round;stroke-linejoin:round;stroke-miterlimit:10;" x1="344.273" y1="451.944" x2="338.025" y2="451.944"/>
		</g>
		<g>
			
				<polygon style="fill:#FCAE2E;stroke:#333333;stroke-width:2.5;stroke-linecap:round;stroke-linejoin:round;stroke-miterlimit:10;" points="
				309.457,433.933 317.501,441.977 270.669,488.81 257.152,494.283 262.625,480.766 			"/>
			
				<line style="fill:#F2F2F2;stroke:#333333;stroke-width:2.5;stroke-linecap:round;stroke-linejoin:round;stroke-miterlimit:10;" x1="270.669" y1="488.81" x2="262.625" y2="480.766"/>
			
				<line style="fill:#F2F2F2;stroke:#333333;stroke-width:2.5;stroke-linecap:round;stroke-linejoin:round;stroke-miterlimit:10;" x1="266.647" y1="484.788" x2="313.479" y2="437.955"/>
			
				<rect x="310.781" y="430.737" transform="matrix(-0.7071 -0.7071 0.7071 -0.7071 232.6798 966.3097)" style="fill:#979795;stroke:#333333;stroke-width:2.5;stroke-linecap:round;stroke-linejoin:round;stroke-miterlimit:10;" width="11.376" height="8.457"/>
			
				<path style="fill:#F12D45;stroke:#333333;stroke-width:2.5;stroke-linecap:round;stroke-linejoin:round;stroke-miterlimit:10;" d="
				M324.09,422.892l4.452,4.452c0.992,0.992,0.992,2.6,0,3.592l-5.061,5.061l-8.044-8.044l5.061-5.061
				C321.49,421.901,323.098,421.901,324.09,422.892z"/>
		</g>
	</g>
	<g>
		
			<polygon style="fill:#F12D45;stroke:#333333;stroke-width:2.5;stroke-linecap:round;stroke-linejoin:round;stroke-miterlimit:10;" points="
			99.905,524.871 70.072,495.037 70.072,452.846 99.905,423.013 142.096,423.013 171.93,452.846 171.93,495.037 142.096,524.871 		
			"/>
		<g>
			
				<polygon style="fill:#F2F2F2;stroke:#333333;stroke-width:2.5;stroke-linecap:round;stroke-linejoin:round;stroke-miterlimit:10;" points="
				105.419,511.558 83.384,489.523 83.384,458.36 105.419,436.325 136.582,436.325 158.617,458.36 158.617,489.523 136.582,511.558 
							"/>
			
				<polygon style="fill:#F2F2F2;stroke:#333333;stroke-width:2.5;stroke-linecap:round;stroke-linejoin:round;stroke-miterlimit:10;" points="
				105.419,511.558 83.384,489.523 83.384,458.36 105.419,436.325 136.582,436.325 158.617,458.36 158.617,489.523 136.582,511.558 
							"/>
		</g>
	</g>
	<g>
		
			<path style="fill:#FCAE2E;stroke:#333333;stroke-width:2.5;stroke-linecap:round;stroke-linejoin:round;stroke-miterlimit:10;" d="
			M727.051,646.819h-60.697c-0.552,0-1-0.448-1-1v-23.504c0-0.552,0.448-1,1-1h60.697c1.95,0,3.53,1.58,3.53,3.53v18.444
			C730.581,645.238,729,646.819,727.051,646.819z"/>
		
			<rect x="656.326" y="625.039" style="fill:#979795;stroke:#333333;stroke-width:2.5;stroke-linecap:round;stroke-linejoin:round;stroke-miterlimit:10;" width="9.028" height="18.056"/>
		
			<polygon style="fill:#979795;stroke:#333333;stroke-width:2.5;stroke-linecap:round;stroke-linejoin:round;stroke-miterlimit:10;" points="
			642.859,627.86 634.358,630.343 634.358,637.791 642.859,640.273 656.326,640.273 656.326,627.86 		"/>
		
			<rect x="621.418" y="631.81" style="fill:#979795;stroke:#333333;stroke-width:2.5;stroke-linecap:round;stroke-linejoin:round;stroke-miterlimit:10;" width="12.94" height="4.514"/>
		
			<path style="fill:#F12D45;stroke:#333333;stroke-width:2.5;stroke-linecap:round;stroke-linejoin:round;stroke-miterlimit:10;" d="
			M714.669,678.207v-31.389h-26.482l5.856,27.967c0.705,3.365-1.864,6.527-5.302,6.527h-4.58c-3.989,0-7.222,3.233-7.222,7.222
			v9.856c0,1.994,1.617,3.611,3.611,3.611h37.24c1.994,0,3.611-1.617,3.611-3.611v-13.467c0-1.994-1.617-3.611-3.611-3.611h-0.017
			C716.059,681.313,714.669,679.922,714.669,678.207z"/>
		
			<line style="fill:#F2F2F2;stroke:#333333;stroke-width:2.5;stroke-linecap:round;stroke-linejoin:round;stroke-miterlimit:10;" x1="676.94" y1="695.156" x2="721.402" y2="695.156"/>
		<path style="fill:none;stroke:#333333;stroke-width:2.5;stroke-linecap:round;stroke-linejoin:round;stroke-miterlimit:10;" d="
			M675.059,646.819v4.852c0,5.983,4.85,10.834,10.833,10.834h5.579"/>
		<g>
			
				<line style="fill:none;stroke:#333333;stroke-width:2.5;stroke-linecap:round;stroke-linejoin:round;stroke-miterlimit:10;" x1="705.908" y1="628.769" x2="710.297" y2="633.158"/>
			
				<line style="fill:none;stroke:#333333;stroke-width:2.5;stroke-linecap:round;stroke-linejoin:round;stroke-miterlimit:10;" x1="715.685" y1="628.769" x2="720.074" y2="633.158"/>
		</g>
	</g>
	<g>
		
			<path style="fill:#979795;stroke:#333333;stroke-width:2.5;stroke-linecap:round;stroke-linejoin:round;stroke-miterlimit:10;" d="
			M536.263,659.849v-10.383l-12.426-2.616c-0.763-3.023-1.953-5.868-3.511-8.477l6.936-10.636l-7.341-7.342l-10.636,6.936
			c-2.609-1.558-5.454-2.748-8.477-3.511l-2.616-12.426h-10.383l-2.616,12.426c-3.022,0.763-5.867,1.953-8.477,3.511l-10.636-6.936
			l-7.341,7.342l6.936,10.636c-1.559,2.609-2.748,5.454-3.511,8.477l-12.426,2.616v10.383l12.426,2.616
			c0.763,3.023,1.953,5.868,3.511,8.477l-6.936,10.636l7.341,7.342l10.636-6.936c2.609,1.558,5.455,2.748,8.477,3.511l2.616,12.426
			h10.383l2.616-12.426c3.022-0.763,5.868-1.953,8.477-3.511l10.636,6.936l7.341-7.342l-6.936-10.636
			c1.558-2.609,2.748-5.454,3.511-8.477L536.263,659.849z M493,668.848c-7.837,0-14.19-6.353-14.19-14.19
			c0-7.837,6.353-14.19,14.19-14.19s14.19,6.353,14.19,14.19C507.19,662.495,500.837,668.848,493,668.848z"/>
	</g>
	<g>
		
			<path style="fill:#979795;stroke:#333333;stroke-width:2.5;stroke-linecap:round;stroke-linejoin:round;stroke-miterlimit:10;" d="
			M165.196,623.587l-10.788,10.788c-2.245,2.246-5.886,2.246-8.132,0l-4.993-4.993c-2.245-2.245-2.245-5.886,0-8.132l10.788-10.788
			c-7.803-2.845-16.885-1.161-23.145,5.099c-6.234,6.234-7.929,15.266-5.133,23.048L78.211,684.19c-3.66,3.66-3.66,9.595,0,13.255
			l0.002,0.002c3.66,3.66,9.595,3.66,13.255,0l45.582-45.582c7.781,2.795,16.813,1.101,23.047-5.133
			C166.357,640.472,168.042,631.39,165.196,623.587z M84.25,694.5c-1.795,0-3.25-1.455-3.25-3.25s1.455-3.25,3.25-3.25
			s3.25,1.455,3.25,3.25S86.045,694.5,84.25,694.5z"/>
	</g>
	<g>
		
			<polygon style="fill:#979795;stroke:#333333;stroke-width:2.5;stroke-linecap:round;stroke-linejoin:round;stroke-miterlimit:10;" points="
			344.914,627.27 334.388,616.744 346.418,607.721 353.937,615.24 		"/>
		<g>
			
				<path style="fill:#F12D45;stroke:#333333;stroke-width:2.5;stroke-linecap:round;stroke-linejoin:round;stroke-miterlimit:10;" d="
				M289.698,663.514c-2.21,2.21-5.792,2.21-8.002,0l-18.227,18.227c-4.542,4.542-4.542,11.905,0,16.446l0.002,0.002
				c4.542,4.542,11.905,4.542,16.446,0l18.227-18.227c-2.21-2.21-2.21-5.792,0-8.002c2.21-2.21,5.792-2.21,8.002,0l6.89-6.89
				l-16.448-16.448l-6.89,6.89C291.908,657.722,291.908,661.305,289.698,663.514z"/>
		</g>
		
			<rect x="318.864" y="614.792" transform="matrix(0.7071 0.7071 -0.7071 0.7071 546.5157 -40.5706)" style="fill:#979795;stroke:#333333;stroke-width:2.5;stroke-linecap:round;stroke-linejoin:round;stroke-miterlimit:10;" width="6.735" height="49.27"/>
	</g>
</g>
</svg>
